PathFileType	4	(X/Y/Z)	s11c0403.trc
DataRate	CameraRate	NumFrames	NumMarkers	Units	OrigDataRate	OrigDataStartFrame	OrigNumFrames
200	200	7	48	mm	200	0	2000
Frame#	Time	racr			lacr			c7			jug			rlel			rdr			llel			ldr			s2			lic			ric			lasi			rasi			rpsi			lpsi			rgt			lgt			rth1			rth2			rth3			rth4			rlfc			rmfc			rsh1			rsh2			rsh3			rsh4			rlmal			rcal			rtoe			rmt5			lth1			lth2			lth4			lth3			llfc			lmfc			llmal			lcal			lmt5			lsh1			lsh2			lsh3			lsh4			ltoe			SBIKE			LBIKE			RBIKE			
		X1	Y1	Z1	X2	Y2	Z2	X3	Y3	Z3	X4	Y4	Z4	X5	Y5	Z5	X6	Y6	Z6	X7	Y7	Z7	X8	Y8	Z8	X9	Y9	Z9	X10	Y10	Z10	X11	Y11	Z11	X12	Y12	Z12	X13	Y13	Z13	X14	Y14	Z14	X15	Y15	Z15	X16	Y16	Z16	X17	Y17	Z17	X18	Y18	Z18	X19	Y19	Z19	X20	Y20	Z20	X21	Y21	Z21	X22	Y22	Z22	X23	Y23	Z23	X24	Y24	Z24	X25	Y25	Z25	X26	Y26	Z26	X27	Y27	Z27	X28	Y28	Z28	X29	Y29	Z29	X30	Y30	Z30	X31	Y31	Z31	X32	Y32	Z32	X33	Y33	Z33	X34	Y34	Z34	X35	Y35	Z35	X36	Y36	Z36	X37	Y37	Z37	X38	Y38	Z38	X39	Y39	Z39	X40	Y40	Z40	X41	Y41	Z41	X42	Y42	Z42	X43	Y43	Z43	X44	Y44	Z44	X45	Y45	Z45	X46	Y46	Z46	X47	Y47	Z47	X48	Y48	Z48	
0	0.0000	418.596371	1428.898848	-107.902842	402.933427	1446.774550	-426.535045	311.336196	1550.911956	-264.474087	362.693197	1385.675891	-273.104719	551.831915	1183.715715	-44.848399	772.174950	973.077069	-71.903826	518.825002	1167.917412	-505.619411	772.157862	959.317839	-486.764305	-151.554345	1173.462598	-253.165076	52.420603	1224.516555	-458.116072	70.129496	1205.442117	-57.913296	100.417671	1153.046504	-424.264051	119.711707	1152.200499	-92.635291	-126.662105	1247.737561	-195.508827	-127.894544	1245.270069	-288.786324	24.211163	1042.027462	-41.272556	-6.148538	1092.251843	-473.865334	120.552700	933.021771	-38.130152	193.921054	882.757248	-47.969980	231.713344	804.926495	-63.067250	220.618528	907.103569	-56.988896	296.090958	718.547258	-79.977585	297.119210	700.993560	-205.361818	205.838712	585.025129	-67.937010	176.017324	503.827137	-87.106576	110.750834	446.146363	-89.354330	197.603727	494.016819	-119.068639	23.969394	345.045700	-103.643081	-42.650275	346.281179	-151.389909	216.328194	224.659900	-146.524576	142.165307	221.544707	-76.932449	133.991940	1034.118729	-493.328553	218.876228	1026.089128	-492.006111	233.000428	1058.799681	-480.362709	291.603535	972.725475	-492.108086	417.691173	906.008248	-468.293297	433.320576	903.139942	-342.057521	247.549383	510.601913	-422.710589	191.786700	463.943977	-382.579246	393.694607	424.862716	-456.509337	367.622886	788.545317	-480.806221	360.820574	704.879311	-462.142845	311.435640	631.939629	-451.494365	390.718032	697.075336	-440.173662	489.677670	452.961471	-392.083298	-177.059152	971.226092	-170.352821	-18.224169	80.950690	-460.584636	-18.089743	80.836991	-61.982356	
1	0.0050	418.532296	1428.908459	-108.045659	402.881605	1446.721708	-426.731750	311.189145	1551.042680	-264.745304	362.631378	1385.656130	-273.268032	551.811100	1183.732665	-44.953612	772.195363	973.083292	-72.004758	518.750293	1167.792414	-505.618927	772.126318	959.275195	-486.675264	-151.572024	1173.442329	-253.132987	52.274131	1224.466140	-458.049153	70.149787	1205.434867	-57.959917	100.246067	1152.978474	-424.240554	119.737976	1152.275297	-92.710675	-126.698658	1247.762407	-195.457424	-127.950478	1245.241264	-288.751785	24.156579	1041.943918	-41.285783	-6.249885	1092.369601	-473.876415	120.378655	932.868163	-38.142204	193.717855	882.492600	-47.986730	231.485660	804.660601	-63.140903	220.414522	906.835581	-57.017673	295.767098	718.262178	-80.057239	296.820983	700.758478	-205.438576	205.682302	584.586786	-67.984017	175.966987	503.326233	-87.137006	110.837544	445.576818	-89.378187	197.551278	493.527651	-119.144299	24.199604	344.336147	-103.673599	-42.479018	345.524885	-151.333520	216.677220	224.099750	-146.616693	142.513473	220.967319	-76.931177	133.989238	1034.370121	-493.315154	218.875540	1026.536063	-492.063456	232.935946	1059.293124	-480.420313	291.654375	973.177910	-492.230306	417.823200	906.608780	-468.475398	433.489653	903.718854	-342.193346	247.309140	511.389867	-422.729963	191.546972	464.699647	-382.472162	393.326831	425.496677	-456.512327	367.642262	789.226419	-480.903711	360.796556	705.457468	-462.200917	311.325043	632.537764	-451.580760	390.693067	697.715244	-440.236349	489.367541	453.467980	-392.106094	-176.794044	971.322322	-170.158169	-18.227431	80.916945	-460.547052	-18.082166	80.848121	-61.991024	
2	0.0100	418.429502	1428.924618	-108.166978	402.832947	1446.669561	-426.939005	311.160324	1551.110267	-264.890381	362.599841	1385.701807	-273.429090	551.756661	1183.729992	-45.050593	772.213153	973.061043	-72.080565	518.698037	1167.670401	-505.602986	772.108089	959.252787	-486.627415	-151.634999	1173.451390	-252.991404	52.186410	1224.424256	-458.086365	70.183849	1205.518911	-58.010498	100.136320	1152.939067	-424.267969	119.777344	1152.357030	-92.759042	-126.702229	1247.746690	-195.415723	-128.013087	1245.243251	-288.709140	24.118589	1041.875277	-41.296041	-6.311026	1092.502052	-473.875052	120.216339	932.719136	-38.136314	193.538122	882.214041	-48.018634	231.214970	804.431344	-63.193436	220.296445	906.613111	-57.016721	295.459899	718.017109	-80.111052	296.490835	700.445263	-205.416879	205.484325	584.253061	-68.030231	175.925330	502.972566	-87.170045	110.903693	445.012753	-89.397244	197.497568	493.075017	-119.185485	24.411024	343.687080	-103.645360	-42.253688	344.759969	-151.398339	216.959047	223.703892	-146.666580	142.896805	220.409303	-76.956831	133.995141	1034.619685	-493.300855	218.875511	1026.904386	-492.086759	232.900763	1059.710362	-480.453265	291.712764	973.694774	-492.376105	417.950945	907.254656	-468.625536	433.682566	904.323681	-342.352464	247.110171	512.184450	-422.789444	191.204091	465.703050	-382.576500	392.986309	426.080285	-456.506831	367.671793	789.878106	-481.033742	360.752559	706.110657	-462.186774	311.227289	633.339471	-451.627992	390.663546	698.313004	-440.291668	489.069245	453.948860	-392.126998	-176.914401	971.277388	-170.295386	-18.228112	80.917411	-460.532241	-18.067792	80.838736	-61.993414	
3	0.0150	418.353843	1428.930888	-108.288705	403.268119	1447.268104	-428.101771	311.108780	1551.169570	-265.063942	362.603105	1385.752725	-273.559103	551.712973	1183.733498	-45.127076	772.232736	973.048542	-72.177898	518.654619	1167.517165	-505.546372	771.873770	958.920486	-485.881237	-151.362517	1173.210271	-252.798868	52.116905	1224.402227	-458.101715	70.245390	1205.617164	-58.080963	99.989422	1152.886723	-424.228119	119.776504	1152.453882	-92.812354	-126.723786	1247.738127	-195.387120	-129.842295	1245.592872	-287.400467	24.079940	1041.815925	-41.303064	-6.366403	1092.636681	-473.878978	120.051066	932.556417	-38.136278	193.337255	882.027340	-48.033971	230.960412	804.146694	-63.238712	220.149757	906.383930	-57.015189	295.117619	717.726020	-80.181212	296.163959	700.177879	-205.447318	205.317476	583.831253	-68.078609	176.027369	502.547615	-87.118127	110.936801	444.523029	-89.424793	197.211150	492.874141	-119.280217	24.646625	343.030016	-103.684350	-41.987529	343.997531	-151.386492	217.308031	223.227019	-146.609378	143.270927	219.939620	-76.957554	133.516975	1034.994206	-493.499035	218.860945	1027.296458	-492.125121	232.918065	1059.889228	-480.142812	291.751171	974.184191	-492.466237	418.088998	907.841471	-468.769993	433.858141	904.925158	-342.509809	246.877902	512.994426	-422.761948	190.938941	466.508499	-382.560354	392.646924	426.660749	-456.493123	367.730512	790.418590	-481.146042	360.717421	706.854945	-462.447773	311.117027	634.000010	-451.690468	390.425468	700.941952	-441.267681	488.775488	454.368557	-392.113537	-176.979311	971.222996	-170.415118	-18.240341	80.911596	-460.530672	-18.075619	80.850756	-61.977840	
4	0.0200	418.230641	1428.765832	-108.360383	403.194128	1447.065411	-428.184175	311.147441	1551.161851	-265.239261	362.579180	1385.522217	-273.737308	551.632976	1183.637299	-45.128975	772.232843	972.926483	-72.057624	518.575222	1167.343013	-505.300517	772.362800	958.879901	-485.327940	-151.371451	1173.292522	-252.772039	52.026906	1224.375874	-458.131344	70.320382	1205.575254	-58.159055	99.814873	1152.809108	-424.121536	119.869092	1152.349148	-92.845077	-126.704090	1247.879252	-195.383905	-129.839549	1245.674568	-287.358514	24.149199	1041.658649	-41.383410	-6.449685	1092.460677	-474.007122	119.964626	932.283812	-38.225811	193.200589	881.680391	-48.040717	230.812251	803.741776	-63.325374	220.089810	906.075350	-57.028109	294.871228	717.366219	-80.231048	295.780059	699.850507	-205.558853	205.228226	583.350567	-68.071380	176.016737	502.079614	-87.247676	111.028629	443.859355	-89.435447	197.234001	492.384719	-119.207980	24.937804	342.247384	-103.586260	-41.763023	343.221109	-151.401493	217.779606	222.637606	-146.428558	143.740953	219.197913	-76.934638	133.475188	1035.140947	-493.562674	218.808516	1027.393051	-491.680243	232.843596	1060.174521	-480.105470	291.785664	974.370133	-492.023292	418.201985	908.175968	-468.395095	434.048896	905.351976	-342.560276	246.644746	513.716629	-422.802300	190.572406	467.388631	-382.508794	392.319705	427.230113	-456.476950	367.789368	791.003640	-480.987736	360.663323	707.417977	-462.485843	311.030403	634.698366	-451.759748	390.069632	701.657213	-442.274386	488.435470	454.863555	-392.171149	-176.823337	971.311497	-170.180871	-18.180908	81.268372	-460.178487	-18.043154	80.803436	-62.039097	
5	0.0250	418.164345	1428.765669	-108.438432	403.131538	1447.052556	-428.361639	311.127982	1551.203578	-265.378739	362.559409	1385.611349	-273.865370	551.568874	1183.562493	-45.223014	772.233893	972.909891	-72.071936	518.531216	1167.257815	-505.198156	772.348523	958.839906	-485.265805	-151.395935	1173.289279	-252.724106	51.960236	1224.396520	-458.227452	70.352890	1205.599746	-58.204555	99.643710	1152.777251	-424.087225	119.884154	1152.412950	-92.889753	-126.746080	1247.911558	-195.328866	-129.858623	1245.664647	-287.334103	24.091738	1041.585729	-41.395552	-6.504732	1093.081037	-473.974010	119.821582	932.117547	-38.244051	192.996421	881.423388	-48.053267	230.517538	803.503653	-63.399144	219.907897	905.781958	-56.993533	294.556264	717.094729	-80.316444	295.384643	699.602423	-205.903755	205.077271	582.934815	-68.116212	175.996610	501.514351	-87.285515	111.065705	443.280779	-89.450109	197.230574	491.893490	-119.204495	25.186512	341.461357	-103.632657	-41.533012	342.382230	-151.463289	218.253704	222.177586	-146.457390	144.133734	218.569547	-76.916179	133.463722	1035.672802	-493.564166	218.821898	1028.016890	-491.831216	232.824160	1060.769466	-480.246386	291.897183	975.112794	-492.395316	418.373395	909.009594	-468.861397	434.235991	905.971341	-342.766670	246.396917	514.673960	-422.854077	190.662475	468.118733	-382.157232	391.975454	427.922504	-456.516626	367.840737	791.767662	-481.293341	360.629673	708.054737	-462.441038	310.870380	635.510917	-451.812641	389.982997	702.400891	-442.401254	488.075087	455.338202	-392.085562	-176.918291	971.229065	-170.340910	-18.131691	80.953058	-460.654993	-18.039506	80.818304	-62.020729	
6	0.0300	418.089596	1428.773978	-108.503163	403.076068	1447.041749	-428.513353	311.099899	1551.261733	-265.566147	362.579067	1385.686574	-273.991252	551.526176	1183.520007	-45.257985	772.236552	972.903863	-72.118044	518.499923	1167.201516	-505.104525	772.365654	958.838710	-485.309155	-151.449241	1173.282429	-252.661214	51.870263	1224.369433	-458.257355	70.382192	1205.652036	-58.259446	99.503936	1152.729161	-424.052176	119.933413	1152.475001	-92.945867	-126.784355	1247.919319	-195.276030	-129.932119	1245.673047	-287.273464	24.059306	1041.503553	-41.401716	-6.589823	1093.241207	-474.003608	119.686515	931.971888	-38.268688	192.760193	881.208275	-48.076717	230.204041	803.267025	-63.481342	219.723877	905.466141	-56.999179	294.182051	716.806961	-80.413340	294.985119	699.332142	-205.958722	204.900179	582.477714	-68.185621	175.955777	501.012481	-87.304486	111.165287	442.713566	-89.529185	197.197676	491.328428	-119.271017	25.396360	340.727806	-103.674365	-41.299592	341.438468	-151.431548	218.677706	221.679938	-146.490214	144.564973	218.000130	-76.892360	133.446114	1035.973414	-493.576991	218.800993	1028.388790	-491.877945	232.752651	1061.219825	-480.268323	291.953726	975.560874	-492.506731	418.509540	909.641105	-469.034191	434.415031	906.505498	-342.906596	246.151270	515.460340	-422.803029	190.398565	469.025332	-382.028126	391.563243	428.564498	-456.484317	367.927745	792.417829	-481.455023	360.579436	708.862602	-462.741347	310.788128	636.212360	-451.872310	389.944711	702.999665	-442.463144	487.733304	455.858906	-392.065397	-176.884946	971.256608	-170.252906	-18.115241	80.904143	-460.651560	-18.039093	80.817438	-62.021831	
